<svg viewBox="0 0 286 125" fill="none" xmlns="http://www.w3.org/2000/svg">
<path d="M91.9483 80.5896C90.6362 80.5896 89.3835 80.3872 88.1935 79.9894C87.0001 79.5916 85.9079 79.0332 84.9133 78.3144C83.9153 77.599 83.0464 76.7476 82.3031 75.76C81.5668 74.7759 80.998 73.6907 80.6002 72.5077C80.1989 71.3282 80 70.0859 80 68.7808C80 67.4688 80.1989 66.223 80.6002 65.04C81.0085 63.8605 81.5808 62.7788 82.3171 61.8017C83.0499 60.8246 83.9223 59.9801 84.9273 59.2613C85.9393 58.5354 87.049 57.9771 88.2494 57.5863C89.4568 57.1954 90.727 57 92.06 57C93.0092 57 93.9723 57.1221 94.9494 57.3629C95.9265 57.5967 96.8652 57.9422 97.769 58.3958C98.6797 58.853 99.5137 59.4148 100.267 60.0848C101.028 60.7548 101.67 61.5295 102.194 62.4019C102.714 63.2778 103.066 64.2444 103.255 65.3052H97.9225C97.3816 64.199 96.5965 63.3371 95.5635 62.7229C94.5306 62.1088 93.3162 61.8017 91.9204 61.8017C91.0061 61.8017 90.1477 61.9622 89.3381 62.2763C88.5355 62.5938 87.8236 63.0579 87.2025 63.6721C86.5883 64.2793 86.1068 65.0121 85.7648 65.8775C85.4193 66.7359 85.2483 67.706 85.2483 68.7948C85.2483 69.9115 85.4193 70.9025 85.7648 71.7679C86.1068 72.6333 86.5883 73.3661 87.2025 73.9594C87.8236 74.5561 88.5355 75.0132 89.3381 75.3273C90.1477 75.6344 91.0061 75.7879 91.9204 75.7879C93.4279 75.7879 94.6911 75.4494 95.7171 74.769C96.75 74.092 97.4235 73.1323 97.741 71.8935H91.711V67.706H103.576C103.593 69.6811 103.345 71.4608 102.836 73.0521C102.323 74.6433 101.566 76.0043 100.561 77.1279C99.5626 78.2446 98.3412 79.103 96.8896 79.6963C95.4449 80.2895 93.7978 80.5896 91.9483 80.5896Z" fill="white"/>
<path d="M126.152 80.0731H110.128V57.5583H125.998V62.2064H115.376V66.4637H124.491V70.8327H115.376V75.411H126.152V80.0731Z" fill="white"/>
<path d="M143.628 80.5896C142.267 80.5896 140.976 80.3872 139.748 79.9894C138.526 79.5916 137.406 79.0332 136.384 78.3144C135.368 77.599 134.489 76.7476 133.745 75.76C132.999 74.7759 132.419 73.6907 132.001 72.5077C131.589 71.3282 131.386 70.0859 131.386 68.7808C131.386 67.4688 131.589 66.223 132.001 65.04C132.419 63.8605 132.999 62.7788 133.745 61.8017C134.489 60.8246 135.368 59.9801 136.384 59.2613C137.406 58.5354 138.526 57.9771 139.748 57.5863C140.976 57.1954 142.267 57 143.628 57C144.975 57 146.259 57.1954 147.48 57.5863C148.698 57.9771 149.818 58.5354 150.844 59.2613C151.867 59.9801 152.75 60.8246 153.496 61.8017C154.25 62.7788 154.829 63.8605 155.241 65.04C155.66 66.223 155.869 67.4688 155.869 68.7808C155.869 70.0859 155.66 71.3282 155.241 72.5077C154.829 73.6907 154.25 74.7759 153.496 75.76C152.75 76.7476 151.867 77.599 150.844 78.3144C149.818 79.0332 148.698 79.5916 147.48 79.9894C146.259 80.3872 144.975 80.5896 143.628 80.5896ZM143.628 75.7879C144.605 75.7879 145.516 75.6169 146.364 75.2715C147.208 74.9295 147.955 74.4444 148.597 73.8198C149.239 73.1882 149.735 72.4484 150.091 71.6004C150.454 70.7455 150.635 69.8103 150.635 68.7948C150.635 67.7828 150.454 66.8476 150.091 65.9892C149.735 65.1342 149.239 64.3944 148.597 63.7698C147.955 63.1382 147.208 62.6531 146.364 62.3181C145.516 61.9761 144.605 61.8017 143.628 61.8017C142.658 61.8017 141.747 61.9761 140.892 62.3181C140.044 62.6531 139.301 63.1382 138.659 63.7698C138.024 64.3944 137.528 65.1342 137.165 65.9892C136.809 66.8476 136.635 67.7828 136.635 68.7948C136.635 69.8103 136.816 70.7455 137.179 71.6004C137.542 72.4484 138.045 73.1882 138.687 73.8198C139.329 74.4444 140.069 74.9295 140.906 75.2715C141.751 75.6169 142.658 75.7879 143.628 75.7879Z" fill="white"/>
<path d="M179.227 80.0731H173.979V57.5583H179.227V66.3381H189.054V57.5583H194.316V80.0731H189.054V70.9862H179.227V80.0731Z" fill="white"/>
<path d="M211.869 80.5896C210.473 80.5896 209.175 80.3732 207.974 79.9475C206.774 79.5218 205.72 78.9076 204.82 78.105C203.926 77.3059 203.228 76.3427 202.726 75.2156C202.223 74.0815 201.972 72.8008 201.972 71.3771V57.5583H207.206V71.0002C207.206 71.904 207.381 72.724 207.737 73.4569C208.1 74.1932 208.623 74.7759 209.314 75.2017C210.012 75.6204 210.864 75.8298 211.869 75.8298C212.863 75.8298 213.704 75.6204 214.395 75.2017C215.082 74.7759 215.602 74.1967 215.958 73.4708C216.321 72.738 216.503 71.9145 216.503 71.0002V57.5583H221.751V71.3771C221.751 72.7171 221.517 73.9524 221.053 75.076C220.596 76.1927 219.929 77.1663 219.057 77.9933C218.181 78.8238 217.134 79.4659 215.916 79.9196C214.706 80.3662 213.355 80.5896 211.869 80.5896Z" fill="white"/>
<path d="M234.653 80.0731H229.405V57.5583H233.983L244.717 71.5306V57.5583H249.966V80.0731H245.429L234.667 66.0869H234.653V80.0731Z" fill="white"/>
<path d="M267.789 80.0731H262.583V62.2204H256.274V57.5583H274.085V62.2204H267.789V80.0731Z" fill="white"/>
<path d="M88.1237 103.227H83.8804V96.3456H84.7737V102.418H88.1237V103.227Z" fill="#424077"/>
<path d="M100.681 103.367C100.279 103.367 99.892 103.304 99.5221 103.185C99.1592 103.067 98.8242 102.899 98.5171 102.683C98.2101 102.459 97.9449 102.201 97.7215 101.901C97.4982 101.604 97.3202 101.28 97.1911 100.924C97.069 100.561 97.0096 100.181 97.0096 99.7794C97.0096 99.3816 97.069 99.0047 97.1911 98.6488C97.3202 98.2859 97.4982 97.9579 97.7215 97.6578C97.9449 97.3611 98.2101 97.1064 98.5171 96.8901C98.8242 96.6667 99.1592 96.4957 99.5221 96.3736C99.892 96.255 100.279 96.1921 100.681 96.1921C101.089 96.1921 101.476 96.255 101.839 96.3736C102.209 96.4957 102.551 96.6667 102.858 96.8901C103.165 97.1064 103.43 97.3611 103.654 97.6578C103.884 97.9579 104.062 98.2859 104.184 98.6488C104.303 99.0047 104.366 99.3816 104.366 99.7794C104.366 100.181 104.303 100.561 104.184 100.924C104.062 101.28 103.884 101.604 103.654 101.901C103.43 102.201 103.165 102.459 102.858 102.683C102.551 102.899 102.209 103.067 101.839 103.185C101.476 103.304 101.089 103.367 100.681 103.367ZM100.681 102.529C101.072 102.529 101.434 102.466 101.769 102.334C102.104 102.194 102.398 101.999 102.649 101.748C102.907 101.496 103.109 101.203 103.249 100.868C103.396 100.533 103.472 100.17 103.472 99.7794C103.472 99.3886 103.396 99.0257 103.249 98.6907C103.109 98.3557 102.907 98.0695 102.649 97.8253C102.398 97.574 102.104 97.3786 101.769 97.239C101.434 97.0925 101.072 97.0157 100.681 97.0157C100.297 97.0157 99.9409 97.0925 99.6059 97.239C99.2709 97.3786 98.9708 97.574 98.7126 97.8253C98.4613 98.0695 98.2589 98.3557 98.1124 98.6907C97.9728 99.0257 97.903 99.3886 97.903 99.7794C97.903 100.17 97.9728 100.533 98.1124 100.868C98.2589 101.203 98.4613 101.496 98.7126 101.748C98.9708 101.999 99.2709 102.194 99.6059 102.334C99.9409 102.466 100.297 102.529 100.681 102.529Z" fill="#424077"/>
<path d="M117.05 103.367C116.649 103.367 116.269 103.304 115.906 103.185C115.543 103.067 115.211 102.899 114.915 102.683C114.615 102.459 114.36 102.201 114.147 101.901C113.931 101.604 113.763 101.28 113.645 100.924C113.522 100.561 113.463 100.181 113.463 99.7794C113.463 99.3816 113.522 99.0047 113.645 98.6488C113.763 98.2859 113.931 97.9579 114.147 97.6578C114.36 97.3611 114.615 97.1064 114.915 96.8901C115.211 96.6667 115.543 96.4957 115.906 96.3736C116.269 96.255 116.649 96.1921 117.05 96.1921C117.413 96.1921 117.766 96.2445 118.111 96.3457C118.464 96.4504 118.785 96.6074 119.074 96.8203C119.371 97.0261 119.622 97.2879 119.828 97.6019C120.041 97.909 120.191 98.2719 120.275 98.6907H119.368C119.263 98.3208 119.095 98.0137 118.865 97.7694C118.642 97.5182 118.369 97.3332 118.055 97.2111C117.738 97.082 117.392 97.0157 117.023 97.0157C116.649 97.0157 116.3 97.0855 115.976 97.2251C115.658 97.3577 115.379 97.5461 115.138 97.7973C114.894 98.0486 114.705 98.3417 114.566 98.6767C114.426 99.0117 114.356 99.3816 114.356 99.7794C114.356 100.191 114.426 100.561 114.566 100.896C114.705 101.231 114.894 101.524 115.138 101.775C115.379 102.02 115.658 102.205 115.976 102.334C116.3 102.466 116.649 102.529 117.023 102.529C117.392 102.529 117.738 102.47 118.055 102.348C118.369 102.229 118.642 102.048 118.865 101.803C119.095 101.552 119.259 101.245 119.354 100.882H120.275C120.191 101.294 120.041 101.657 119.828 101.971C119.622 102.278 119.371 102.54 119.074 102.753C118.785 102.958 118.467 103.112 118.125 103.213C117.78 103.314 117.42 103.367 117.05 103.367Z" fill="#424077"/>
<path d="M135.713 103.227H134.764L134.108 101.664H130.646L129.99 103.227H129.041L131.944 96.3456H132.81L135.713 103.227ZM132.349 97.6019L130.953 100.91H133.801L132.405 97.6019L132.391 97.4902H132.377L132.349 97.6019Z" fill="#424077"/>
<path d="M147.388 103.227H146.495V97.1552H144.317V96.3456H149.565V97.1552H147.388V103.227Z" fill="#424077"/>
<path d="M159.928 103.227H159.035V96.3456H159.928V103.227Z" fill="#424077"/>
<path d="M173.228 103.367C172.827 103.367 172.439 103.304 172.069 103.185C171.706 103.067 171.371 102.899 171.064 102.683C170.757 102.459 170.492 102.201 170.269 101.901C170.045 101.604 169.867 101.28 169.738 100.924C169.616 100.561 169.557 100.181 169.557 99.7794C169.557 99.3816 169.616 99.0047 169.738 98.6488C169.867 98.2859 170.045 97.9579 170.269 97.6578C170.492 97.3611 170.757 97.1064 171.064 96.8901C171.371 96.6667 171.706 96.4957 172.069 96.3736C172.439 96.255 172.827 96.1921 173.228 96.1921C173.636 96.1921 174.024 96.255 174.386 96.3736C174.756 96.4957 175.098 96.6667 175.405 96.8901C175.713 97.1064 175.978 97.3611 176.201 97.6578C176.431 97.9579 176.609 98.2859 176.731 98.6488C176.85 99.0047 176.913 99.3816 176.913 99.7794C176.913 100.181 176.85 100.561 176.731 100.924C176.609 101.28 176.431 101.604 176.201 101.901C175.978 102.201 175.713 102.459 175.405 102.683C175.098 102.899 174.756 103.067 174.386 103.185C174.024 103.304 173.636 103.367 173.228 103.367ZM173.228 102.529C173.619 102.529 173.982 102.466 174.317 102.334C174.652 102.194 174.945 101.999 175.196 101.748C175.454 101.496 175.657 101.203 175.796 100.868C175.943 100.533 176.02 100.17 176.02 99.7794C176.02 99.3886 175.943 99.0257 175.796 98.6907C175.657 98.3557 175.454 98.0695 175.196 97.8253C174.945 97.574 174.652 97.3786 174.317 97.239C173.982 97.0925 173.619 97.0157 173.228 97.0157C172.844 97.0157 172.488 97.0925 172.153 97.239C171.818 97.3786 171.518 97.574 171.26 97.8253C171.009 98.0695 170.806 98.3557 170.66 98.6907C170.52 99.0257 170.45 99.3886 170.45 99.7794C170.45 100.17 170.52 100.533 170.66 100.868C170.806 101.203 171.009 101.496 171.26 101.748C171.518 101.999 171.818 102.194 172.153 102.334C172.488 102.466 172.844 102.529 173.228 102.529Z" fill="#424077"/>
<path d="M191.538 101.734V96.3456H192.431V103.227H191.663L187.434 97.8531V103.227H186.541V96.3456H187.295L191.538 101.734Z" fill="#424077"/>
<mask id="mask0_167_7" style="mask-type:luminance" maskUnits="userSpaceOnUse" x="8" y="8" width="61" height="97">
<path d="M8.19995 8.97888H68.9466V104.098H8.19995V8.97888Z" fill="white"/>
</mask>
<g mask="url(#mask0_167_7)">
<path d="M39.1909 8.97189C38.9153 8.96491 38.6326 8.96143 38.3499 8.96143C38.0708 8.96143 37.7881 8.96491 37.509 8.97189C15.2768 9.5407 1.54181 33.6502 11.878 53.4257L19.8237 68.6368L38.3499 104.098L44.8685 91.6227C42.2024 86.6535 39.5329 81.6809 36.8634 76.7117C32.7875 69.1184 28.7152 61.525 24.6394 53.9387C22.57 50.0827 20.5949 46.1534 20.0541 41.7426C18.7524 31.1098 27.7835 21.6426 38.2767 21.6007C48.5674 21.5623 56.918 29.9199 56.918 40.2386C56.918 50.5328 48.6023 58.8764 38.3499 58.8764C38.0115 58.8764 37.6765 58.8694 37.3415 58.852L49.6981 82.3858L56.8831 68.6368L64.8219 53.4257C75.1581 33.6502 61.4231 9.5407 39.1909 8.97189Z" fill="#E92026"/>
</g>
</svg>
